<svg width="154" height="47" viewBox="0 0 154 47" fill="none" xmlns="http://www.w3.org/2000/svg">
<g clip-path="url(#clip0_10_70)">
<path d="M24.3684 13.8846C22.4158 13.8846 20.5431 14.6603 19.1624 16.041L14.6564 20.547C13.2757 21.9278 12.5 23.8004 12.5 25.753C12.5 29.8192 15.7962 33.1154 19.8624 33.1154C21.815 33.1154 23.6876 32.3397 25.0683 30.959L28.1852 27.8421C28.1852 27.842 28.1853 27.8422 28.1852 27.8421L37.2667 18.7606C37.9261 18.1012 38.8204 17.7308 39.753 17.7308C41.3143 17.7308 42.6379 18.7483 43.0969 20.1565L45.963 17.2904C44.6555 15.2425 42.3628 13.8846 39.753 13.8846C37.8004 13.8846 35.9278 14.6603 34.5471 16.041L22.3487 28.2394C21.6893 28.8988 20.7949 29.2692 19.8624 29.2692C17.9204 29.2692 16.3462 27.695 16.3462 25.753C16.3462 24.8204 16.7166 23.9261 17.376 23.2667L21.8821 18.7606C22.5415 18.1012 23.4358 17.7308 24.3684 17.7308C25.9297 17.7308 27.2533 18.7484 27.7122 20.1565L30.5784 17.2904C29.2709 15.2426 26.9783 13.8846 24.3684 13.8846Z" fill="#FDFFF1"/>
<path d="M37.7333 28.2394C37.0739 28.8988 36.1795 29.2692 35.247 29.2692C33.6859 29.2692 32.3624 28.2519 31.9033 26.844L29.0373 29.7101C30.3449 31.7576 32.6374 33.1154 35.247 33.1154C37.1996 33.1154 39.0722 32.3397 40.4529 30.959L52.6513 18.7606C53.3107 18.1012 54.205 17.7308 55.1376 17.7308C57.0796 17.7308 58.6538 19.305 58.6538 21.247C58.6538 22.1795 58.2834 23.0739 57.624 23.7333L53.1179 28.2394C52.4585 28.8988 51.5641 29.2692 50.6316 29.2692C49.0704 29.2692 47.7468 28.2517 47.2878 26.8437L44.4218 29.7098C45.7293 31.7576 48.0218 33.1154 50.6316 33.1154C52.5842 33.1154 54.4568 32.3397 55.8375 30.959L60.3436 26.4529C61.7243 25.0722 62.5 23.1996 62.5 21.247C62.5 17.1809 59.2038 13.8846 55.1376 13.8846C53.185 13.8846 51.3124 14.6603 49.9317 16.041L37.7333 28.2394Z" fill="#FDFFF1"/>
</g>
<path d="M78.5957 29H74.7188V16.7344H70.8906V14.9375H82.4238V16.7344H78.5957V29ZM88.293 29H84.416V14.9375H91.3301C91.9811 14.9375 92.6094 15.0156 93.2148 15.1719C93.8203 15.3216 94.3542 15.5625 94.8164 15.8945C95.2852 16.2201 95.6562 16.6432 95.9297 17.1641C96.2096 17.6849 96.3496 18.3164 96.3496 19.0586C96.3496 19.638 96.2259 20.1849 95.9785 20.6992C95.7376 21.207 95.4121 21.6628 95.002 22.0664C94.5983 22.4635 94.1328 22.7956 93.6055 23.0625C93.0781 23.3229 92.5312 23.4954 91.9648 23.5801C92.2188 24.0098 92.4824 24.4167 92.7559 24.8008C93.0358 25.1849 93.3158 25.5462 93.5957 25.8848C93.8822 26.2168 94.1654 26.526 94.4453 26.8125C94.7253 27.0924 94.9922 27.3496 95.2461 27.584C95.8451 28.1309 96.4375 28.6029 97.0234 29H92.1895C91.7988 28.6289 91.4277 28.1829 91.0762 27.6621C90.7767 27.2194 90.474 26.6725 90.168 26.0215C89.8685 25.3639 89.6374 24.6055 89.4746 23.7461H88.293V29ZM92.4141 19.0586C92.4141 18.1146 92.1829 17.4212 91.7207 16.9785C91.265 16.5358 90.5781 16.3145 89.6602 16.3145H88.293V22.418H89.6602C90.1484 22.418 90.5651 22.3268 90.9102 22.1445C91.2617 21.9557 91.5482 21.7083 91.7695 21.4023C91.9909 21.0898 92.1536 20.7318 92.2578 20.3281C92.362 19.9245 92.4141 19.5013 92.4141 19.0586ZM112.238 22.2715V22.457C112.225 23.0039 112.167 23.5703 112.062 24.1562C111.965 24.7422 111.825 25.3281 111.643 25.9141C111.46 26.5 111.242 27.0794 110.988 27.6523C110.734 28.2253 110.448 28.7721 110.129 29.293C109.816 29.8203 109.478 30.3118 109.113 30.7676C108.749 31.2298 108.365 31.6367 107.961 31.9883L106.506 31.1484C106.734 30.7643 106.939 30.3444 107.121 29.8887C107.31 29.4395 107.479 28.9674 107.629 28.4727C107.779 27.9779 107.906 27.4701 108.01 26.9492C108.12 26.4284 108.212 25.9108 108.283 25.3965C108.355 24.8822 108.407 24.3776 108.439 23.8828C108.479 23.3815 108.498 22.9062 108.498 22.457C108.498 22.1055 108.495 21.7083 108.488 21.2656C108.488 20.8164 108.462 20.3607 108.41 19.8984C108.365 19.4362 108.286 18.987 108.176 18.5508C108.065 18.1081 107.899 17.7142 107.678 17.3691C107.463 17.0241 107.183 16.7474 106.838 16.5391C106.499 16.3307 106.076 16.2266 105.568 16.2266C105.119 16.2266 104.732 16.3047 104.406 16.4609C104.087 16.6107 103.814 16.8158 103.586 17.0762C103.365 17.3301 103.186 17.6263 103.049 17.9648C102.919 18.3034 102.814 18.6615 102.736 19.0391C102.665 19.4102 102.616 19.7878 102.59 20.1719C102.57 20.5495 102.561 20.9076 102.561 21.2461V23.9707H106.77V25.582H102.561V29H98.6836V21.8516C98.6836 20.8294 98.8464 19.8789 99.1719 19C99.4974 18.1211 99.9564 17.3594 100.549 16.7148C101.148 16.0638 101.864 15.556 102.697 15.1914C103.537 14.8203 104.471 14.6348 105.5 14.6348C106.197 14.6348 106.848 14.7357 107.453 14.9375C108.065 15.1328 108.622 15.4062 109.123 15.7578C109.624 16.1029 110.07 16.5163 110.461 16.998C110.858 17.4733 111.187 17.9941 111.447 18.5605C111.714 19.127 111.916 19.7259 112.053 20.3574C112.189 20.9889 112.251 21.627 112.238 22.2715ZM127.541 18.4238L125.871 19.127C125.741 18.7038 125.565 18.3164 125.344 17.9648C125.129 17.6133 124.868 17.3138 124.562 17.0664C124.263 16.8125 123.921 16.6172 123.537 16.4805C123.153 16.3372 122.733 16.2656 122.277 16.2656C121.789 16.2656 121.34 16.347 120.93 16.5098C120.526 16.666 120.161 16.8841 119.836 17.1641C119.517 17.444 119.237 17.7695 118.996 18.1406C118.755 18.5117 118.553 18.9089 118.391 19.332C118.228 19.7487 118.107 20.1816 118.029 20.6309C117.951 21.0801 117.912 21.5195 117.912 21.9492C117.912 22.6328 117.99 23.3132 118.146 23.9902C118.309 24.6673 118.563 25.276 118.908 25.8164C119.26 26.3568 119.712 26.7962 120.266 27.1348C120.819 27.4668 121.49 27.6328 122.277 27.6328C122.694 27.6328 123.088 27.5645 123.459 27.4277C123.83 27.2845 124.165 27.0924 124.465 26.8516C124.771 26.6042 125.038 26.3145 125.266 25.9824C125.493 25.6504 125.676 25.2923 125.812 24.9082L127.502 25.582C127.255 26.2005 126.916 26.7441 126.486 27.2129C126.057 27.6751 125.565 28.0592 125.012 28.3652C124.465 28.6712 123.876 28.8991 123.244 29.0488C122.619 29.2051 121.988 29.2832 121.35 29.2832C120.66 29.2832 119.995 29.1986 119.357 29.0293C118.726 28.86 118.137 28.6191 117.59 28.3066C117.043 27.9941 116.545 27.6165 116.096 27.1738C115.653 26.7311 115.272 26.2396 114.953 25.6992C114.641 25.1589 114.396 24.5729 114.221 23.9414C114.051 23.3034 113.967 22.6393 113.967 21.9492C113.967 21.2591 114.051 20.5983 114.221 19.9668C114.396 19.3288 114.641 18.7396 114.953 18.1992C115.272 17.6523 115.653 17.1576 116.096 16.7148C116.545 16.2721 117.043 15.8945 117.59 15.582C118.137 15.2695 118.726 15.0286 119.357 14.8594C119.995 14.6901 120.66 14.6055 121.35 14.6055C122.014 14.6055 122.661 14.6836 123.293 14.8398C123.931 14.9961 124.523 15.2337 125.07 15.5527C125.617 15.8652 126.102 16.2624 126.525 16.7441C126.955 17.2194 127.294 17.7793 127.541 18.4238ZM139.904 29H129.807V14.9375H139.904V16.7344H133.684V21.0801H138.488V22.8672H133.684V27.2031H139.904V29Z" fill="#FDFFF1"/>
<defs>
<clipPath id="clip0_10_70">
<rect width="50" height="19.2308" fill="white" transform="translate(12.5 13.8846)"/>
</clipPath>
</defs>
</svg>
