<svg width="51" height="21" viewBox="0 0 51 21" fill="none" xmlns="http://www.w3.org/2000/svg">
<g clip-path="url(#clip0_10_74)">
<path d="M12.3684 0.884613C10.4158 0.884613 8.54314 1.66029 7.16244 3.041L2.65638 7.54705C1.27567 8.92775 0.5 10.8004 0.5 12.753C0.5 16.8192 3.79624 20.1154 7.86237 20.1154C9.815 20.1154 11.6876 19.3397 13.0683 17.959L16.1852 14.8421C16.1852 14.842 16.1853 14.8422 16.1852 14.8421L25.2667 5.76064C25.9261 5.10122 26.8204 4.73077 27.753 4.73077C29.3143 4.73077 30.6379 5.74834 31.0969 7.15645L33.963 4.29036C32.6555 2.24252 30.3628 0.884613 27.753 0.884613C25.8004 0.884613 23.9278 1.66029 22.5471 3.041L10.3487 15.2394C9.6893 15.8988 8.79494 16.2692 7.86237 16.2692C5.92041 16.2692 4.34615 14.695 4.34615 12.753C4.34615 11.8204 4.71661 10.9261 5.37603 10.2667L9.88205 5.76064C10.5415 5.10122 11.4358 4.73077 12.3684 4.73077C13.9297 4.73077 15.2533 5.74838 15.7122 7.15654L18.5784 4.29043C17.2709 2.24256 14.9783 0.884613 12.3684 0.884613Z" fill="#FDFFF1"/>
<path d="M25.7333 15.2394C25.0739 15.8988 24.1795 16.2692 23.247 16.2692C21.6859 16.2692 20.3624 15.2519 19.9033 13.844L17.0373 16.7101C18.3449 18.7576 20.6374 20.1154 23.247 20.1154C25.1996 20.1154 27.0722 19.3397 28.4529 17.959L40.6513 5.76064C41.3107 5.10122 42.205 4.73077 43.1376 4.73077C45.0796 4.73077 46.6538 6.30502 46.6538 8.24698C46.6538 9.17955 46.2834 10.0739 45.624 10.7333L41.1179 15.2394C40.4585 15.8988 39.5641 16.2692 38.6316 16.2692C37.0704 16.2692 35.7468 15.2517 35.2878 13.8437L32.4218 16.7098C33.7293 18.7576 36.0218 20.1154 38.6316 20.1154C40.5842 20.1154 42.4568 19.3397 43.8375 17.959L48.3436 13.4529C49.7243 12.0722 50.5 10.1996 50.5 8.24698C50.5 4.18086 47.2038 0.884613 43.1376 0.884613C41.185 0.884613 39.3124 1.66029 37.9317 3.041L25.7333 15.2394Z" fill="#FDFFF1"/>
</g>
<defs>
<clipPath id="clip0_10_74">
<rect width="50" height="19.2308" fill="white" transform="translate(0.5 0.884613)"/>
</clipPath>
</defs>
</svg>
